<?xml version="1.0" standalone="no"?>
<!DOCTYPE svg PUBLIC "-//W3C//DTD SVG 20010904//EN"
 "http://www.w3.org/TR/2001/REC-SVG-20010904/DTD/svg10.dtd">
<svg version="1.0" xmlns="http://www.w3.org/2000/svg"
 width="387.000000pt" height="99.000000pt" viewBox="0 0 387.000000 99.000000"
 preserveAspectRatio="xMidYMid meet">

<g transform="translate(0.000000,99.000000) scale(0.100000,-0.100000)"
fill="#000000" stroke="none">
<path d="M3057 932 c-15 -17 -17 -55 -17 -345 0 -283 2 -328 16 -341 18 -19
185 -23 246 -6 122 34 167 171 85 258 -20 22 -20 24 -4 51 36 61 12 143 -53
180 -23 13 -65 24 -104 28 l-66 6 0 71 c0 84 -16 116 -59 116 -15 0 -35 -8
-44 -18z m177 -282 c34 -12 50 -44 36 -70 -8 -16 -21 -20 -60 -20 l-50 0 0 50
c0 46 2 50 24 50 14 0 36 -4 50 -10z m40 -211 c55 -43 13 -109 -70 -109 l-44
0 0 65 0 65 44 0 c29 0 52 -7 70 -21z"/>
<path d="M2367 892 c-14 -16 -17 -43 -17 -175 l0 -157 -70 0 -70 0 0 85 c0 80
-2 86 -25 101 -32 21 -71 7 -85 -32 -6 -14 -10 -116 -10 -227 0 -227 5 -250
56 -255 54 -5 64 16 64 129 l0 99 70 0 70 0 0 -98 c0 -109 11 -132 63 -132 54
0 57 16 57 340 0 251 -2 299 -16 318 -19 27 -64 29 -87 4z"/>
<path d="M545 746 c-67 -31 -104 -106 -86 -173 13 -49 50 -84 126 -120 35 -17
65 -39 74 -55 14 -24 14 -28 -3 -47 -16 -18 -31 -21 -102 -21 -72 0 -85 -3
-94 -19 -30 -56 7 -81 121 -83 131 -3 192 37 205 135 5 35 2 56 -15 89 -22 46
-53 69 -136 103 -44 18 -50 24 -53 52 -4 42 24 57 88 49 84 -11 130 27 91 76
-15 18 -30 22 -102 25 -57 2 -94 -1 -114 -11z"/>
<path d="M1021 749 c-70 -21 -124 -69 -167 -149 -27 -52 -26 -181 3 -236 49
-94 124 -139 228 -139 82 0 125 20 125 59 0 35 -17 43 -102 48 -65 3 -81 7
-104 28 -55 51 -69 132 -34 207 26 59 69 83 146 83 33 0 68 6 78 13 26 19 18
68 -14 84 -29 15 -110 15 -159 2z"/>
<path d="M1312 750 c-38 -16 -43 -51 -40 -278 3 -198 4 -215 22 -228 15 -10
52 -14 142 -14 132 0 154 8 154 54 0 38 -19 46 -112 46 l-88 0 0 60 0 60 66 0
c80 0 104 11 104 48 0 43 -17 52 -97 52 l-73 0 0 50 0 50 78 0 c91 0 125 16
120 58 -2 16 -13 31 -28 39 -29 15 -213 17 -248 3z"/>
<path d="M1686 737 l-26 -26 0 -303 c0 -336 2 -348 60 -348 52 0 60 26 60 187
l0 143 40 -6 c58 -9 106 3 146 38 48 43 64 77 64 143 0 62 -14 97 -57 136 -46
43 -72 52 -169 57 -89 4 -93 4 -118 -21z m204 -112 c16 -17 24 -37 24 -60 0
-51 -36 -85 -91 -85 l-43 0 0 85 0 85 43 0 c34 0 49 -6 67 -25z"/>
<path d="M2590 740 c-19 -19 -20 -33 -20 -200 0 -200 6 -228 58 -272 86 -72
223 -58 290 30 27 35 27 36 30 228 3 184 2 194 -17 213 -28 28 -55 26 -80 -5
-19 -25 -21 -40 -21 -195 0 -156 -2 -171 -20 -189 -23 -23 -68 -26 -96 -6 -17
13 -19 31 -24 196 -5 176 -6 182 -29 201 -30 24 -46 24 -71 -1z"/>
</g>
</svg>
