<?xml version="1.0" standalone="no"?>
<!DOCTYPE svg PUBLIC "-//W3C//DTD SVG 20010904//EN"
 "http://www.w3.org/TR/2001/REC-SVG-20010904/DTD/svg10.dtd">
<svg version="1.0" xmlns="http://www.w3.org/2000/svg"
 width="599.000000pt" height="568.000000pt" viewBox="0 0 599.000000 568.000000"
 preserveAspectRatio="xMidYMid meet">

<g transform="translate(0.000000,568.000000) scale(0.100000,-0.100000)"
fill="#000000" stroke="none">
<path d="M2947 5439 c-399 -39 -801 -212 -1102 -476 -257 -225 -474 -562 -573
-888 -196 -649 -35 -1365 420 -1862 167 -183 327 -304 548 -416 583 -294 1250
-282 1814 35 433 243 758 648 900 1121 143 473 106 954 -108 1392 -109 221
-225 383 -397 551 -403 393 -962 595 -1502 543z m258 -216 c57 -19 126 -84
151 -140 9 -22 16 -66 16 -103 1 -148 -109 -259 -258 -260 -145 0 -253 110
-254 261 0 181 171 302 345 242z m-611 -84 c16 -8 37 -37 60 -86 50 -103 47
-147 -14 -178 -71 -37 -118 -5 -164 111 -26 65 -27 74 -15 100 13 27 69 64 96
64 7 0 23 -5 37 -11z m1061 -9 c3 -5 18 -10 33 -10 21 0 24 2 12 10 -13 9 -13
10 0 10 17 0 70 -46 70 -60 0 -5 -7 -7 -15 -4 -8 4 -15 12 -15 19 0 8 -3 16
-7 18 -15 9 -1 -88 14 -100 13 -10 12 -15 -2 -44 -12 -22 -19 -28 -25 -19 -6
9 -11 7 -19 -8 -10 -18 -9 -21 4 -16 21 9 19 -6 -7 -33 -32 -35 -91 -32 -129
6 -16 16 -29 40 -29 53 1 28 33 95 42 88 3 -3 16 8 28 23 16 20 19 31 11 41
-7 9 -7 16 1 24 15 15 25 15 33 2z m-1345 -135 c9 -10 9 -15 1 -15 -6 0 -11 5
-11 10 0 20 -43 9 -66 -17 -24 -28 -23 -48 3 -39 8 3 23 1 33 -4 20 -10 50 9
50 33 0 6 9 -6 20 -28 19 -37 19 -65 0 -35 -11 17 -13 9 -4 -14 3 -9 12 -12
22 -8 14 5 15 4 2 -10 -14 -15 -16 -14 -29 10 -7 15 -15 28 -16 30 -8 9 -62 9
-72 0 -17 -14 -43 7 -43 34 0 27 44 68 73 68 14 0 30 -7 37 -15z m1697 -7 c40
-37 23 -94 -24 -82 -17 5 -27 -6 -63 -71 -38 -68 -45 -76 -69 -73 -39 5 -38
38 3 114 20 35 36 75 36 87 0 13 5 28 12 35 20 20 79 14 105 -10z m-1712 -18
c3 -6 -4 -10 -17 -10 -18 0 -20 2 -8 10 19 12 18 12 25 0z m76 -147 c9 4 8 6
-5 6 -15 1 -16 4 -6 16 11 13 14 13 26 -2 18 -24 18 -72 -1 -79 -20 -8 -47 15
-41 33 3 8 1 11 -4 8 -9 -6 -14 8 -11 28 0 4 -3 7 -9 7 -5 0 -17 15 -26 33
-15 30 -13 29 24 -12 23 -25 45 -41 53 -38z m-371 -23 c-13 -8 -13 -11 -1 -19
8 -5 12 -18 9 -29 -5 -19 4 -29 27 -30 6 0 9 4 7 10 -1 5 2 7 8 3 6 -3 8 -11
5 -16 -10 -15 11 -10 25 6 16 19 5 34 -20 28 -21 -6 -23 -3 -14 20 6 15 4 16
132 -60 12 -8 20 -18 17 -23 -3 -4 1 -10 7 -13 19 -7 -4 -41 -31 -45 -15 -2
-21 2 -22 15 0 10 -3 13 -5 6 -3 -7 -30 3 -77 29 -83 48 -107 66 -107 84 0 16
28 44 43 44 7 0 6 -4 -3 -10z m876 -70 l34 -36 -337 -205 c-267 -162 -339
-210 -343 -230 -5 -20 -8 -21 -16 -9 -12 20 -69 51 -78 43 -3 -3 -6 3 -6 14 0
26 25 47 45 39 21 -8 19 -2 -7 20 -12 10 -19 14 -15 9 3 -6 -3 -11 -13 -11
-10 0 -17 4 -14 8 2 4 -4 11 -13 17 -10 5 -14 13 -10 18 5 4 15 -1 23 -11 8
-11 14 -15 14 -9 0 6 87 64 193 128 539 330 479 297 495 272 8 -12 30 -38 48
-57z m1368 67 c11 -8 17 -23 14 -37 -2 -19 -26 -37 -103 -82 -89 -52 -101 -56
-120 -44 -26 17 -31 49 -9 66 35 30 170 110 185 110 8 0 23 -6 33 -13z m-535
-168 c146 -89 293 -178 326 -198 57 -35 62 -36 89 -23 38 19 156 29 156 14 0
-6 6 -9 13 -7 17 7 83 -30 79 -45 -1 -6 2 -9 7 -5 13 7 45 -41 37 -54 -4 -5
-1 -13 5 -17 8 -5 9 -3 4 6 -5 8 -4 11 3 6 17 -11 36 -115 23 -130 -6 -8 -9
-20 -5 -29 10 -28 -45 -115 -88 -138 -14 -7 -16 -6 -12 6 3 8 9 13 13 10 12
-7 56 58 56 83 1 13 -4 21 -10 18 -8 -3 -10 4 -7 19 6 32 -16 42 -24 10 -3
-13 -10 -22 -15 -19 -5 3 -9 -2 -9 -10 0 -8 -9 -20 -19 -26 -11 -5 -27 -18
-37 -27 -16 -16 -18 -16 -35 6 -14 17 -25 22 -44 17 -14 -4 -25 -2 -25 4 0 5
15 10 34 10 50 0 90 37 88 81 -2 56 -6 78 -13 73 -4 -2 -10 0 -14 6 -3 5 -27
10 -52 10 -60 0 -93 -28 -94 -79 0 -20 -3 -29 -6 -21 -4 8 -13 20 -22 27 -15
11 -15 12 0 13 16 0 34 26 30 43 -1 5 3 6 9 2 6 -4 10 6 10 24 0 17 -3 31 -7
31 -5 1 -27 5 -51 9 -34 7 -45 5 -49 -5 -3 -8 -10 -11 -16 -7 -6 4 -7 1 -2 -7
6 -10 11 -9 22 5 7 11 13 13 13 6 0 -7 5 -9 10 -6 17 11 32 -5 19 -21 -14 -17
-33 -19 -23 -2 4 7 3 8 -4 4 -15 -9 -16 -62 -2 -71 6 -3 10 -25 10 -47 0 -23
-3 -38 -7 -34 -4 4 -7 22 -8 41 0 19 -4 35 -9 34 -5 0 -12 4 -15 9 -3 6 -12 3
-21 -6 -13 -14 -12 -15 2 -10 17 7 27 -30 31 -114 2 -28 5 -34 15 -26 7 6 11
17 8 25 -3 7 0 13 5 13 7 0 9 -9 6 -21 -4 -15 -2 -19 9 -15 8 3 14 1 14 -4 0
-5 16 -14 35 -21 26 -10 32 -16 24 -26 -17 -19 -4 -42 20 -36 12 3 21 1 21 -6
0 -6 -11 -11 -25 -11 -14 0 -25 5 -25 11 0 5 -4 8 -10 4 -15 -9 -87 42 -115
82 -25 37 -32 63 -17 63 4 0 8 12 9 27 l1 28 -14 -25 c-13 -23 -14 -20 -12 47
l3 71 -230 138 c-126 76 -281 170 -342 207 l-113 69 48 54 c28 32 53 52 61 49
8 -3 134 -78 280 -166z m-506 -208 c9 -11 5 -10 -14 3 -25 16 -27 16 -32 -4
-3 -11 -1 -23 5 -26 5 -3 2 -14 -8 -25 -16 -18 -16 -19 2 -20 10 -1 23 -1 27
0 5 1 7 -6 5 -16 -2 -10 -10 -17 -17 -15 -7 1 -10 -2 -7 -7 4 -5 -11 -7 -34
-4 -45 6 -80 -15 -80 -49 0 -10 -4 -18 -10 -18 -5 0 -10 7 -10 16 0 8 -5 12
-11 8 -8 -4 -8 -1 0 14 7 14 17 19 28 15 11 -4 14 -3 9 6 -4 6 -4 11 1 10 13
-3 43 12 43 23 0 5 -15 6 -32 3 -40 -7 -72 9 -48 24 21 14 5 25 -18 12 -11 -6
-23 -7 -27 -3 -5 4 -5 2 -1 -5 4 -7 7 -52 7 -100 1 -48 6 -94 11 -100 7 -9 7
-17 -1 -26 -8 -10 -7 -19 4 -33 15 -19 20 -12 16 26 -1 12 1 11 12 -2 16 -21
63 -24 70 -5 4 7 6 6 6 -5 1 -9 15 -21 32 -27 31 -11 32 -30 1 -32 -9 0 -12
-3 -5 -5 6 -3 28 2 48 10 42 18 59 20 33 5 -16 -9 -18 -30 -18 -207 l1 -197
229 -138 c227 -137 230 -138 267 -128 158 44 295 -84 252 -236 -32 -116 -157
-173 -268 -123 l-43 20 -187 -112 c-102 -61 -201 -121 -218 -132 l-33 -21 0
-175 0 -175 -67 0 -68 0 -5 175 -5 174 -80 50 c-44 27 -144 87 -222 133 l-142
83 -43 -20 c-58 -27 -104 -25 -166 6 -69 34 -103 90 -103 168 0 135 117 222
249 187 37 -11 47 -10 75 7 18 11 123 75 235 142 l202 124 -1 190 0 191 -51
33 -51 32 -201 -111 c-110 -62 -220 -123 -244 -136 -64 -36 -79 -87 -37 -128
33 -34 52 -32 134 15 39 22 77 40 84 40 8 0 26 -9 41 -21 33 -26 34 -68 4 -97
-37 -33 -169 -92 -209 -92 -157 0 -253 158 -184 303 24 52 44 65 327 222 l248
136 11 42 c14 54 52 104 95 124 l34 17 0 97 0 98 68 3 67 3 3 -99 c2 -59 8
-106 15 -115z m-1293 165 c0 -1 -13 -1 -30 2 -22 3 -30 0 -30 -11 0 -9 -7 -20
-16 -25 -14 -8 -14 -10 0 -21 13 -11 16 -11 16 3 0 9 7 16 16 16 8 0 13 4 10
8 -2 4 6 8 20 8 13 0 24 -2 24 -4 0 -11 -22 -42 -31 -42 -6 0 -7 4 -4 10 3 6
-1 7 -10 3 -11 -4 -13 -8 -6 -12 12 -8 -179 -131 -201 -131 -21 0 -38 21 -38
47 0 26 73 78 93 67 7 -4 9 -3 4 1 -4 5 14 23 40 42 47 34 70 42 57 21 -4 -7
-3 -8 5 -4 6 4 9 12 6 17 -9 14 37 28 58 17 9 -5 17 -10 17 -12z m2496 -4 c21
-15 74 -49 117 -76 72 -45 78 -50 75 -78 -6 -57 -34 -54 -147 17 -149 93 -161
106 -135 143 20 29 43 28 90 -6z m-2369 -159 c-15 -2 -25 -9 -22 -14 4 -5 -3
-9 -14 -9 -12 0 -21 5 -21 11 0 5 -4 7 -10 4 -9 -6 -15 -55 -6 -55 2 0 13 -3
23 -6 15 -5 15 -4 3 5 -8 6 -10 11 -5 11 6 -1 19 -7 29 -15 11 -8 30 -15 43
-15 14 0 21 -5 17 -13 -5 -14 -19 -17 -71 -17 -18 0 -33 -3 -33 -8 0 -12 62
-13 77 -1 8 7 15 4 23 -11 13 -25 5 -39 -12 -22 -7 7 -31 12 -54 12 -52 0 -83
-33 -85 -89 -1 -24 -3 -29 -6 -13 -4 19 -7 21 -19 11 -12 -10 -14 -5 -12 34 3
37 6 44 21 41 31 -6 48 6 37 26 -5 9 -7 20 -4 22 2 3 -6 3 -19 1 -14 -3 -30
-15 -37 -28 -20 -38 -16 -212 5 -233 3 -4 15 -1 25 6 24 15 30 15 30 2 0 -5
-6 -10 -14 -10 -8 0 -13 -8 -11 -17 1 -10 7 -17 11 -17 5 1 28 5 50 9 27 4 44
2 49 -5 5 -8 10 -8 20 0 8 7 19 8 26 4 7 -4 10 -2 7 7 -3 8 -14 15 -25 17 -13
2 -24 13 -27 27 -4 14 -12 22 -19 19 -7 -2 -21 1 -30 9 -16 11 -13 12 21 9 70
-7 104 41 91 128 -1 8 -1 29 -1 47 2 24 6 31 17 27 8 -4 15 -12 15 -19 0 -7
11 -20 25 -29 22 -15 25 -24 25 -76 0 -38 -4 -60 -11 -60 -8 0 -10 -14 -6 -41
5 -35 3 -40 -11 -37 -9 2 -25 -4 -34 -14 -19 -19 -19 -19 25 -22 6 -1 11 5 9
12 -1 8 1 11 6 8 5 -3 16 4 25 14 15 18 15 20 -1 30 -16 9 -16 11 1 20 10 7
17 23 17 40 0 23 4 28 20 27 12 -1 20 -8 20 -20 0 -10 -5 -15 -10 -12 -7 4 -9
-2 -5 -17 11 -43 -101 -149 -141 -134 -10 4 -12 2 -8 -6 5 -8 -14 -9 -67 -6
-56 4 -83 11 -111 29 -21 13 -38 28 -38 32 0 5 5 5 10 2 18 -11 11 11 -10 30
-11 10 -17 22 -13 28 3 6 1 7 -6 3 -6 -4 -8 -13 -4 -19 17 -27 11 -40 -7 -17
-31 40 -42 87 -38 160 3 57 9 77 34 112 22 32 37 43 57 43 14 1 30 5 34 9 4 5
-2 5 -14 2 -38 -12 -26 4 20 24 27 13 62 19 97 18 30 0 43 -3 27 -5z m1263
-98 c11 -23 20 -51 20 -63 0 -12 4 -22 10 -22 5 0 86 -42 178 -94 93 -52 197
-109 233 -126 129 -65 179 -128 179 -226 0 -108 -77 -191 -186 -201 -54 -4
-66 -1 -140 35 -45 22 -89 51 -98 63 -31 45 -14 92 39 105 17 4 42 -5 86 -31
85 -50 111 -54 143 -22 33 33 34 76 4 104 -13 11 -97 60 -188 108 -91 48 -196
105 -234 127 -66 37 -69 38 -89 21 -18 -17 -18 -16 2 18 13 21 19 44 15 55 -5
16 -4 16 5 4 8 -12 11 -8 12 20 1 28 3 30 7 10 4 -23 5 -24 12 -5 4 11 3 31
-1 43 -5 13 -6 29 -2 35 4 7 -2 5 -12 -3 -17 -14 -18 -14 -5 10 9 17 10 25 1
28 -6 2 -11 9 -11 15 0 7 -4 18 -9 26 -8 13 -12 13 -28 0 -16 -13 -17 -13 -4
4 11 14 11 20 0 35 -7 9 -1 6 14 -7 15 -13 36 -43 47 -66z m-556 46 c11 -12
15 -27 12 -39 -8 -24 -338 -225 -362 -220 -24 4 -38 31 -31 59 4 17 37 42 119
91 62 37 133 81 158 98 52 35 80 38 104 11z m870 -31 c42 -27 76 -52 76 -56 0
-3 -11 1 -25 10 -14 9 -25 13 -25 9 0 -13 40 -34 50 -28 11 7 135 -60 162 -87
49 -49 -19 -102 -70 -53 -11 10 -8 15 12 29 14 9 26 13 26 9 0 -5 9 -14 20
-21 26 -16 26 -2 0 28 l-19 22 -31 -26 c-25 -21 -35 -24 -51 -16 -23 13 -24
17 -4 17 8 0 15 -5 15 -11 0 -6 5 -4 10 4 5 8 10 11 10 7 0 -12 30 20 30 32 0
15 -17 14 -22 -1 -5 -14 -38 -20 -38 -6 0 5 -7 2 -16 -6 -12 -12 -20 -13 -35
-5 -21 11 -17 29 8 29 10 0 13 -6 9 -17 -4 -13 -1 -12 13 4 10 12 21 20 24 17
3 -3 8 -1 12 5 3 6 3 11 -2 12 -4 0 -19 2 -32 3 -13 2 -32 -5 -42 -15 -18 -18
-21 -17 -86 17 -37 20 -80 45 -95 56 -45 31 -33 88 18 88 12 0 56 -22 98 -50z
m-396 -52 c-1 -7 3 -23 10 -36 11 -19 10 -25 -2 -38 -9 -8 -20 -13 -25 -9 -5
3 -13 0 -17 -6 -5 -8 -3 -9 7 -4 8 5 4 -3 -8 -16 -19 -21 -30 -24 -60 -20
l-38 4 35 8 c19 4 38 5 43 2 4 -2 7 -1 6 4 -1 4 3 21 10 38 9 21 9 36 1 53
-11 25 -5 46 11 36 5 -3 9 -2 8 3 -4 21 3 26 12 11 5 -10 9 -24 7 -30z m912
-22 c0 -11 -19 -15 -25 -6 -3 5 1 10 9 10 9 0 16 -2 16 -4z m-1890 -66 c0 -5
-8 -10 -17 -10 -15 0 -16 2 -3 10 19 12 20 12 20 0z m831 -17 c13 -16 12 -17
-3 -4 -17 13 -22 21 -14 21 2 0 10 -8 17 -17z m-1504 -15 c44 -41 15 -108 -47
-108 -61 0 -92 69 -48 110 28 26 66 26 95 -2z m3173 2 c11 -11 20 -24 20 -30
0 -17 -28 1 -33 21 -3 10 -12 19 -20 19 -20 0 -61 -56 -47 -65 6 -4 8 -11 5
-16 -3 -5 1 -6 9 -3 8 3 13 14 11 25 -6 29 12 32 45 9 37 -26 37 -35 4 -56
-20 -14 -27 -15 -34 -5 -6 11 -8 11 -12 0 -8 -23 -48 28 -48 61 0 22 7 33 28
44 36 20 48 20 72 -4z m-364 -85 c-1 -8 -6 -18 -12 -22 -5 -4 -6 -4 -2 1 4 5
3 15 -3 23 -9 10 -8 13 4 13 8 0 14 -7 13 -15z m-26 -36 c0 -5 -4 -8 -9 -5 -5
4 -12 0 -14 -6 -3 -8 -6 -6 -6 5 -1 9 6 17 14 17 8 0 15 -5 15 -11z m-41 -16
c-3 -34 1 -44 14 -37 9 5 9 4 0 -6 -19 -20 -43 -4 -43 30 0 21 5 30 16 30 9 0
14 -8 13 -17z m-2431 -122 l32 -13 0 -323 c0 -293 -2 -325 -17 -343 -29 -34
-66 -37 -99 -9 l-29 25 -3 381 -3 381 43 -43 c24 -23 58 -49 76 -56z m2582
-286 l0 -376 -26 -25 c-29 -30 -67 -27 -96 8 -16 18 -18 50 -18 343 l0 323 29
11 c16 7 46 30 67 51 22 21 40 39 42 39 1 1 2 -168 2 -374z m-190 355 c11 -7
7 -10 -17 -10 -18 0 -33 5 -33 10 0 13 30 13 50 0z m495 -84 c50 -21 65 -59
65 -166 0 -131 -28 -170 -121 -170 -85 0 -109 38 -109 169 0 107 9 135 52 161
39 24 67 25 113 6z m-3207 -21 c2 -11 11 -26 20 -33 12 -9 13 -15 4 -24 -9 -9
-12 -8 -12 6 0 9 -5 14 -10 11 -6 -4 -8 -11 -5 -16 4 -5 9 -37 13 -72 4 -34
11 -60 16 -59 5 2 13 -2 18 -10 6 -8 8 21 6 79 -2 50 0 86 4 80 4 -7 8 -56 8
-109 0 -71 -4 -100 -15 -111 -8 -8 -12 -17 -9 -20 10 -10 -54 -37 -86 -37 -43
0 -89 26 -100 56 -6 14 -10 70 -10 125 0 98 1 101 29 130 26 26 36 29 78 26
38 -2 49 -7 51 -22z m635 3 l22 -22 -27 17 c-27 17 -46 8 -33 -14 11 -17 49
-28 57 -15 4 6 8 -142 8 -329 0 -187 5 -356 10 -375 5 -19 12 -44 15 -56 6
-18 -7 -30 -95 -84 l-101 -62 7 -58 c18 -164 -93 -290 -259 -290 -78 0 -118
14 -172 61 -109 96 -114 293 -9 391 68 64 189 86 279 52 22 -8 48 -18 57 -21
9 -3 43 11 77 32 l61 38 1 216 c1 119 2 223 3 231 2 8 3 70 4 137 2 104 4 122
17 117 9 -4 15 0 15 10 0 10 -6 13 -15 10 -21 -8 -19 13 3 25 27 16 51 13 75
-11z m1920 8 c9 -7 17 -21 17 -30 0 -13 -6 -10 -24 11 -18 20 -28 25 -36 17
-16 -16 -2 -43 21 -37 13 4 19 0 19 -11 0 -9 -7 -16 -15 -16 -12 0 -15 -13
-15 -55 0 -30 -4 -55 -10 -55 -5 0 -10 -19 -10 -43 0 -24 -5 -48 -11 -54 -7
-7 -9 -19 -5 -29 6 -16 8 -16 21 2 14 18 14 18 16 -6 3 -57 5 -63 17 -67 6 -3
12 2 12 11 0 9 4 16 9 16 6 0 12 17 14 38 2 20 4 -69 5 -198 l2 -236 65 -38
65 -38 55 21 c114 43 231 17 306 -66 46 -50 63 -101 63 -178 -1 -72 -20 -119
-69 -173 -52 -58 -107 -82 -188 -82 -82 0 -122 15 -181 70 -67 62 -97 164 -74
250 7 23 -1 30 -98 92 -100 65 -104 69 -92 90 10 17 14 119 18 401 5 360 6
379 24 393 25 17 56 18 79 0z m-2526 -163 c-3 -10 -5 -4 -5 12 0 17 2 24 5 18
2 -7 2 -21 0 -30z m2490 -100 c-3 -10 -5 -4 -5 12 0 17 2 24 5 18 2 -7 2 -21
0 -30z m-2524 -207 c15 -12 18 -30 19 -116 0 -57 -4 -106 -9 -111 -6 -6 -21
-9 -34 -7 -22 3 -24 8 -29 78 -5 72 -6 75 -30 75 -37 0 -40 46 -4 74 31 24 61
26 87 7z m3127 -10 c0 -21 17 -28 38 -17 15 8 18 5 19 -12 1 -12 -1 -17 -5
-12 -4 6 -17 10 -29 11 -20 0 -22 -3 -17 -35 3 -20 9 -40 12 -46 3 -5 5 -22 3
-37 -3 -35 25 -39 32 -5 3 12 4 2 3 -23 -1 -38 -4 -45 -23 -48 -32 -5 -45 28
-41 106 2 39 -1 68 -7 69 -5 0 -9 -3 -7 -9 1 -5 -3 -8 -10 -6 -21 7 -22 50 -2
65 23 17 34 16 34 -1z m37 8 c-3 -3 -12 -4 -19 -1 -8 3 -5 6 6 6 11 1 17 -2
13 -5z m20 -116 c-3 -7 -5 -2 -5 12 0 14 2 19 5 13 2 -7 2 -19 0 -25z m-2141
-400 c58 -34 69 -56 47 -87 -20 -29 -50 -26 -108 12 -52 33 -67 65 -45 93 19
22 49 17 106 -18z m1139 16 c27 -27 14 -56 -40 -91 -54 -36 -86 -41 -105 -19
-22 27 -7 60 44 94 54 36 77 40 101 16z m359 -180 c8 -35 38 -13 -299 -219
-88 -54 -209 -128 -269 -166 l-109 -68 -28 35 c-15 19 -37 43 -50 54 l-24 21
23 16 c12 8 183 114 380 234 l357 218 6 -47 c4 -26 9 -61 13 -78z m-1666 -46
c147 -89 314 -190 372 -225 58 -34 105 -67 105 -71 0 -5 -21 -31 -46 -59 l-46
-51 -164 100 c-523 321 -514 315 -511 340 1 12 5 47 8 76 4 28 8 52 11 52 2 0
124 -73 271 -162z m-290 -208 c23 -21 28 -55 13 -78 -6 -9 -19 -11 -44 -7 -48
9 -108 -10 -100 -32 4 -11 2 -14 -5 -9 -7 4 -14 -3 -18 -19 -3 -14 -11 -25
-16 -25 -6 0 -5 -6 2 -15 10 -12 10 -15 -4 -15 -27 0 -11 -42 18 -46 9 -1 14
2 10 7 -3 5 -10 7 -15 4 -5 -4 -9 -2 -9 3 0 16 13 22 26 11 10 -8 14 -2 20 25
4 22 12 36 21 36 11 0 7 -13 -14 -52 -24 -46 -32 -53 -58 -53 -50 0 -45 38 21
152 78 136 105 156 152 113z m2034 8 c8 -7 41 -60 72 -117 67 -122 71 -156 17
-156 -32 0 -36 4 -82 90 -40 74 -52 89 -69 87 -49 -8 -66 45 -28 85 24 25 65
30 90 11z m-2102 -138 c-6 -11 -12 -20 -14 -20 -2 0 -2 9 1 20 3 11 9 20 15
20 5 0 4 -9 -2 -20z m329 10 c46 -13 89 -56 97 -96 8 -43 -35 -239 -58 -270
-44 -56 -153 -52 -202 7 -32 38 -34 88 -6 213 21 95 37 121 85 142 37 16 42
16 84 4z m1517 -15 c18 -14 17 -14 -9 -5 -36 13 -84 13 -92 0 -3 -5 -15 -10
-25 -10 -12 0 -26 -13 -35 -30 -9 -16 -12 -30 -8 -30 4 0 2 -5 -5 -12 -15 -15
-16 -32 -2 -23 6 3 11 -2 11 -12 1 -16 2 -16 8 2 3 11 9 -18 12 -65 4 -59 8
-78 13 -63 5 13 13 20 19 16 7 -4 8 0 3 13 -14 35 -18 134 -6 134 6 0 9 4 6 8
-2 4 10 9 27 10 18 1 40 5 50 8 11 3 16 1 15 -7 -5 -22 26 -20 40 2 12 18 12
23 0 30 -9 6 -9 9 -1 9 17 0 27 -24 48 -108 15 -61 15 -75 4 -90 -13 -15 -12
-16 4 -3 15 12 17 10 16 -20 0 -28 -2 -31 -9 -14 -7 16 -9 17 -9 3 -1 -9 4
-20 9 -23 17 -11 11 -31 -19 -65 -24 -28 -37 -34 -85 -38 -59 -5 -96 10 -115
46 -5 10 -22 69 -36 131 -25 110 -25 114 -8 149 10 20 32 44 48 53 38 22 105
24 131 4z m-677 -21 c188 -94 186 -375 -3 -471 -103 -52 -233 -29 -309 57 -53
57 -70 103 -71 180 0 105 54 192 149 239 62 31 166 28 234 -5z m666 -3 c3 -5
2 -12 -3 -15 -5 -3 -9 1 -9 9 0 17 3 19 12 6z m-25 -23 c0 -10 -9 -9 -35 2
-17 8 -16 8 8 7 15 -1 27 -5 27 -9z m-1222 -320 c-15 -12 -22 -35 -19 -64 1
-16 47 -24 60 -11 16 16 13 48 -6 69 -20 22 -11 24 11 2 25 -25 20 -72 -9 -86
-19 -9 -29 -8 -50 6 -30 20 -35 69 -7 85 24 15 39 13 20 -1z m933 2 c13 -8 19
-21 19 -46 0 -27 -5 -37 -25 -46 -41 -19 -79 0 -83 40 -2 18 2 40 9 48 13 16
52 18 80 4z m-895 -58 c-4 -24 -21 -17 -23 10 -1 22 1 25 11 15 8 -6 13 -18
12 -25z"/>
<path d="M3074 5048 c-45 -21 -57 -89 -23 -132 28 -35 95 -37 126 -3 30 33 34
54 19 92 -22 51 -70 68 -122 43z"/>
<path d="M2531 5066 c-8 -10 -5 -26 13 -69 27 -61 36 -70 60 -61 22 8 20 25
-10 89 -27 56 -42 66 -63 41z"/>
<path d="M3637 5124 c-3 -3 -1 -18 4 -32 10 -27 -6 -76 -21 -67 -5 3 -11 -2
-14 -11 -4 -9 -2 -13 5 -8 8 4 9 -1 4 -17 -8 -26 -8 -26 -6 -51 1 -11 6 -15
16 -12 15 6 48 -19 39 -29 -3 -3 -1 -7 3 -10 5 -3 9 5 9 18 0 13 -4 21 -9 18
-5 -3 -7 3 -5 13 2 11 10 18 17 16 7 -1 9 2 6 9 -4 6 1 28 10 49 21 47 14 70
-20 70 -21 0 -25 4 -20 19 6 19 -7 36 -18 25z"/>
<path d="M3676 5098 c3 -5 10 -6 15 -3 13 9 11 12 -6 12 -8 0 -12 -4 -9 -9z"/>
<path d="M3576 5016 c-3 -14 -2 -35 4 -48 9 -22 10 -21 8 7 -1 17 1 35 5 42 4
6 3 14 -2 17 -5 3 -12 -5 -15 -18z"/>
<path d="M3706 4994 c-10 -25 -7 -32 10 -30 22 3 36 29 21 38 -18 11 -24 10
-31 -8z"/>
<path d="M3553 4965 c0 -8 4 -15 9 -15 4 0 8 7 8 15 0 8 -4 15 -8 15 -5 0 -9
-7 -9 -15z"/>
<path d="M3575 4921 c-6 -11 13 -26 22 -17 4 3 0 6 -8 6 -11 0 -11 2 1 10 9 6
10 10 3 10 -6 0 -14 -4 -18 -9z"/>
<path d="M2315 4931 c-3 -5 -1 -12 5 -16 5 -3 10 1 10 9 0 18 -6 21 -15 7z"/>
<path d="M2100 4712 c0 -4 6 -14 13 -21 10 -10 8 -11 -8 -6 -20 7 -20 6 -1 -9
24 -20 37 -21 30 -2 -3 8 -1 17 5 21 6 3 9 0 6 -7 -2 -7 2 -22 10 -32 23 -30
43 -6 26 30 -9 21 -17 25 -36 21 -14 -2 -25 0 -25 4 0 5 -4 9 -10 9 -5 0 -10
-4 -10 -8z"/>
<path d="M2171 4321 c-12 -8 -12 -12 -2 -25 15 -18 41 -21 41 -6 0 6 -7 13
-15 16 -8 4 -12 10 -9 15 7 11 3 11 -15 0z"/>
<path d="M4165 4411 c-36 -8 -47 -40 -16 -48 14 -4 21 -13 21 -30 0 -23 20
-30 23 -8 0 6 7 16 14 23 11 11 15 11 28 -1 8 -8 12 -17 9 -20 -3 -3 3 -10 14
-16 19 -10 19 -8 12 25 l-8 36 41 -6 c25 -4 37 -2 28 3 -8 5 -9 11 -3 15 6 4
15 -2 21 -11 6 -10 11 -13 11 -7 0 5 -5 15 -12 22 -9 9 -16 8 -30 -5 -18 -16
-18 -16 -12 1 6 16 3 18 -24 14 -25 -4 -29 -2 -21 9 9 10 4 13 -27 12 -22 -1
-52 -4 -69 -8z m5 -31 c-19 -12 -30 -12 -30 -1 0 10 31 20 40 14 2 -2 -2 -8
-10 -13z"/>
<path d="M4345 4330 c-3 -5 0 -10 7 -10 7 0 18 -10 23 -22 6 -11 21 -25 34
-30 24 -9 24 -8 -3 17 -15 14 -25 29 -22 34 3 5 -1 12 -10 15 -21 8 -22 8 -29
-4z"/>
<path d="M4188 4306 c-25 -18 -22 -24 6 -19 14 3 27 11 30 19 7 18 -13 18 -36
0z"/>
<path d="M4337 4243 c-4 -3 -7 -11 -7 -17 0 -6 5 -5 12 2 6 6 9 14 7 17 -3 3
-9 2 -12 -2z"/>
<path d="M4415 4164 c4 -16 7 -38 7 -49 -1 -17 1 -17 8 -4 12 21 6 72 -10 77
-10 4 -11 -3 -5 -24z"/>
<path d="M4320 4140 c-8 -5 -12 -12 -9 -15 4 -3 12 1 19 10 14 17 11 19 -10 5z"/>
<path d="M4285 4117 c-25 -28 -28 -39 -10 -35 10 1 20 13 21 26 4 25 3 26 -11
9z"/>
<path d="M4106 4032 c-7 -12 22 -38 31 -28 4 3 0 14 -9 22 -9 10 -18 12 -22 6z"/>
<path d="M3030 4405 c0 -8 9 -19 19 -24 17 -10 18 -9 7 14 -12 28 -26 33 -26
10z"/>
<path d="M2990 4390 c-13 -8 -12 -10 3 -10 9 0 17 5 17 10 0 12 -1 12 -20 0z"/>
<path d="M2935 4300 c-3 -5 -2 -10 4 -10 5 0 12 -8 14 -17 4 -14 5 -13 6 4 1
24 -14 39 -24 23z"/>
<path d="M2931 4213 c0 -5 4 -17 9 -28 8 -17 8 -16 7 8 -1 15 -5 27 -9 27 -4
0 -8 -3 -7 -7z"/>
<path d="M3086 4065 c-11 -8 -15 -15 -10 -15 6 0 14 4 20 9 5 5 20 11 34 14
l25 4 -25 1 c-14 1 -34 -5 -44 -13z"/>
<path d="M2892 3414 l-221 -135 2 -57 3 -56 109 -64 c61 -35 159 -93 219 -128
l109 -65 74 46 c40 25 75 45 77 45 2 0 65 36 141 80 76 44 142 80 147 80 5 0
8 28 6 62 l-3 62 -195 118 c-107 66 -207 125 -221 133 -25 14 -34 9 -247 -121z"/>
<path d="M2442 3264 c-44 -30 -21 -114 31 -114 60 0 89 68 47 110 -24 24 -48
25 -78 4z"/>
<path d="M3716 3259 c-31 -25 -34 -61 -6 -89 27 -27 62 -25 88 3 28 30 28 52
-3 82 -29 30 -45 31 -79 4z"/>
<path d="M1778 4533 c-22 -6 -31 -31 -10 -29 9 0 17 -5 17 -11 0 -7 3 -13 8
-13 4 0 10 0 13 0 4 0 1 7 -6 15 -7 8 -10 22 -6 30 3 8 4 14 3 14 -1 -1 -9 -3
-19 -6z"/>
<path d="M1735 4480 c3 -5 8 -10 11 -10 2 0 4 5 4 10 0 6 -5 10 -11 10 -5 0
-7 -4 -4 -10z"/>
<path d="M1686 4471 c-4 -6 -13 -8 -21 -4 -8 3 -15 0 -15 -6 0 -6 3 -10 8 -10
28 5 62 -3 56 -12 -4 -7 2 -7 17 1 31 16 39 25 15 16 -12 -4 -26 0 -36 9 -11
10 -20 13 -24 6z"/>
<path d="M1640 4430 c0 -5 4 -10 9 -10 6 0 13 5 16 10 3 6 -1 10 -9 10 -9 0
-16 -4 -16 -10z"/>
<path d="M1985 4330 c-4 -6 5 -10 20 -10 15 0 24 4 20 10 -3 6 -12 10 -20 10
-8 0 -17 -4 -20 -10z"/>
<path d="M1820 4311 c0 -6 4 -13 10 -16 6 -3 7 1 4 9 -7 18 -14 21 -14 7z"/>
<path d="M1900 4250 c0 -5 5 -10 11 -10 5 0 7 5 4 10 -3 6 -8 10 -11 10 -2 0
-4 -4 -4 -10z"/>
<path d="M2111 4184 c0 -11 3 -14 6 -6 3 7 2 16 -1 19 -3 4 -6 -2 -5 -13z"/>
<path d="M2102 4126 c7 -8 15 -12 17 -11 5 6 -10 25 -20 25 -5 0 -4 -6 3 -14z"/>
<path d="M1825 4120 c-3 -5 -1 -10 4 -10 6 0 11 5 11 10 0 6 -2 10 -4 10 -3 0
-8 -4 -11 -10z"/>
<path d="M2044 4095 c-18 -14 -17 -14 15 -15 29 0 32 2 21 15 -15 18 -12 18
-36 0z"/>
<path d="M1876 4031 c-3 -5 6 -16 20 -26 l25 -16 -16 25 c-19 29 -21 30 -29
17z"/>
<path d="M3800 4141 c0 -12 28 -22 35 -12 3 5 -2 12 -11 15 -21 8 -24 8 -24
-3z"/>
<path d="M4676 3805 c-3 -9 -6 -45 -6 -80 0 -69 13 -89 52 -83 22 3 23 7 23
88 l0 85 -31 3 c-22 2 -33 -2 -38 -13z"/>
<path d="M1426 3859 c-19 -28 -21 -46 -3 -31 6 6 26 12 42 14 27 4 28 5 10 13
-11 5 -23 13 -26 18 -4 5 -14 -1 -23 -14z"/>
<path d="M1517 3863 c-4 -3 -7 -11 -7 -16 0 -6 3 -7 7 -4 3 4 12 2 19 -4 8 -6
14 -6 18 0 4 5 2 12 -4 16 -5 3 -10 3 -10 -2 0 -4 -4 -2 -8 5 -5 7 -11 9 -15
5z"/>
<path d="M1481 3816 c-8 -9 -11 -43 -9 -92 3 -83 17 -105 54 -89 11 4 21 8 24
7 10 -1 -2 163 -12 175 -14 17 -43 16 -57 -1z"/>
<path d="M1424 3795 c-3 -8 -4 -20 -1 -27 3 -7 6 -3 6 9 1 12 7 24 14 26 9 4
9 6 -1 6 -7 1 -15 -6 -18 -14z"/>
<path d="M1574 3645 c-4 -8 -12 -15 -19 -15 -25 0 -27 -20 -3 -29 25 -9 47 10
48 42 0 21 -18 23 -26 2z"/>
<path d="M1436 3605 c6 -15 36 -13 41 2 2 6 -7 11 -21 11 -16 0 -23 -5 -20
-13z"/>
<path d="M1498 3573 c6 -2 18 -2 25 0 6 3 1 5 -13 5 -14 0 -19 -2 -12 -5z"/>
<path d="M2170 3811 c-25 -6 -25 -8 -29 -123 -2 -86 0 -118 9 -118 6 0 18 -7
26 -15 9 -8 20 -15 25 -15 5 0 9 61 9 140 0 77 -3 139 -7 139 -5 -1 -19 -4
-33 -8z"/>
<path d="M2112 3570 c0 -14 2 -19 5 -12 2 6 2 18 0 25 -3 6 -5 1 -5 -13z"/>
<path d="M1745 2905 c-50 -50 -23 -130 47 -142 32 -5 41 -1 68 25 38 39 40 83
5 117 -33 34 -87 34 -120 0z"/>
<path d="M4026 3861 c-4 -7 -5 -15 -2 -18 9 -9 19 4 14 18 -4 11 -6 11 -12 0z"/>
<path d="M4045 3810 c-3 -5 1 -10 9 -10 9 0 16 5 16 10 0 6 -4 10 -9 10 -6 0
-13 -4 -16 -10z"/>
<path d="M4372 2907 c-31 -33 -30 -90 3 -122 50 -51 139 -14 139 58 0 77 -92
118 -142 64z"/>
<path d="M4706 3211 c-4 -7 -5 -15 -2 -18 9 -9 19 4 14 18 -4 11 -6 11 -12 0z"/>
<path d="M2085 2471 c-11 -5 -23 -7 -27 -4 -4 2 -5 -2 -2 -10 8 -21 68 -16 72
6 4 18 -10 21 -43 8z"/>
<path d="M2132 2438 c-15 -15 -16 -38 -1 -38 5 0 7 5 3 11 -3 6 0 15 7 20 7 4
11 10 8 13 -3 3 -11 0 -17 -6z"/>
<path d="M2025 2410 c3 -5 11 -10 16 -10 6 0 7 5 4 10 -3 6 -11 10 -16 10 -6
0 -7 -4 -4 -10z"/>
<path d="M1940 2241 c0 -6 4 -13 10 -16 6 -3 7 1 4 9 -7 18 -14 21 -14 7z"/>
<path d="M2333 2258 c-6 -7 -19 -50 -28 -96 -17 -79 -17 -83 0 -102 41 -46 75
-12 94 94 10 54 11 84 4 95 -13 20 -56 26 -70 9z"/>
<path d="M3940 2270 c-6 -11 -9 -24 -6 -29 3 -5 -2 -8 -12 -7 -9 0 -20 9 -24
19 -5 11 -18 17 -42 17 -53 0 -59 -21 -37 -126 11 -49 17 -91 15 -93 -2 -2 -4
1 -4 8 0 7 -5 9 -10 6 -6 -4 -8 -11 -5 -16 4 -5 1 -9 -4 -9 -14 0 -14 23 0 37
6 6 9 17 7 24 -2 7 -14 -1 -28 -21 -13 -19 -19 -30 -12 -26 8 5 12 -2 12 -23
0 -23 4 -31 18 -30 10 0 12 3 4 6 -22 9 -2 23 24 17 19 -5 23 -3 19 9 -5 11 0
13 17 10 14 -3 34 3 48 15 l23 19 -17 68 c-9 37 -14 70 -11 73 3 3 5 -3 5 -14
0 -16 2 -17 10 -4 7 11 10 1 11 -35 0 -27 3 -43 6 -35 3 8 12 18 19 23 12 7
10 61 -3 97 -4 8 -5 21 -4 28 3 18 -7 14 -19 -8z m23 -90 c3 -11 1 -18 -4 -14
-5 3 -9 12 -9 20 0 20 7 17 13 -6z"/>
<path d="M3943 2071 c-15 -23 -10 -57 8 -53 8 2 6 -5 -6 -19 l-20 -22 27 18
c15 9 25 22 21 28 -3 6 -9 23 -12 39 -6 26 -7 27 -18 9z"/>
<path d="M3880 2000 c0 -5 7 -7 15 -4 8 4 15 8 15 10 0 2 -7 4 -15 4 -8 0 -15
-4 -15 -10z"/>
<path d="M3840 1980 c0 -5 7 -10 16 -10 8 0 12 5 9 10 -3 6 -10 10 -16 10 -5
0 -9 -4 -9 -10z"/>
<path d="M3059 2151 c-59 -59 -20 -152 64 -151 26 0 60 26 76 58 9 17 9 31 1
57 -23 69 -90 86 -141 36z"/>
<path d="M4715 1496 c-55 -24 -55 -27 -55 -541 l0 -473 27 -32 26 -32 166 4
c148 3 172 6 216 26 99 46 154 124 155 220 0 65 -17 108 -64 159 -35 39 -35
40 -16 58 47 42 51 153 9 218 -47 71 -134 107 -261 107 l-78 0 0 116 c0 63 -5
124 -11 136 -6 11 -26 26 -44 34 -40 16 -33 16 -70 0z m279 -461 c35 -32 35
-76 0 -104 -21 -16 -41 -21 -90 -21 l-64 0 0 75 0 75 64 0 c53 0 67 -4 90 -25z
m16 -290 c17 -9 33 -28 40 -50 24 -74 -36 -125 -147 -125 l-63 0 0 95 0 95 70
0 c43 0 82 -6 100 -15z"/>
<path d="M3684 1440 c-51 -20 -54 -37 -54 -287 l0 -233 -105 0 -105 0 0 119
c0 112 -1 120 -25 145 -32 34 -83 35 -122 2 l-28 -24 -3 -324 c-2 -208 1 -336
7 -359 20 -67 108 -83 154 -28 14 18 17 43 17 165 l0 144 105 0 105 0 0 -144
c0 -130 2 -146 21 -170 28 -35 86 -36 126 -2 l28 24 3 439 c4 478 1 503 -48
528 -32 17 -45 18 -76 5z"/>
<path d="M960 1211 c-183 -40 -247 -256 -113 -383 15 -15 72 -47 126 -72 82
-38 100 -51 111 -78 17 -40 5 -81 -30 -97 -14 -6 -74 -11 -134 -11 -97 0 -112
-2 -130 -20 -20 -20 -26 -54 -14 -85 13 -32 59 -45 176 -47 147 -4 197 10 258
72 75 74 89 174 39 276 -26 54 -71 88 -171 130 -96 40 -118 58 -118 96 0 55
27 68 145 68 99 0 107 2 130 25 40 39 28 87 -28 110 -39 16 -199 27 -247 16z"/>
<path d="M1611 1195 c-24 -8 -67 -30 -95 -49 -251 -174 -227 -571 44 -704 49
-24 66 -27 160 -27 143 0 190 21 190 87 0 13 -7 33 -15 45 -13 19 -26 22 -129
25 -110 3 -116 4 -153 34 -134 106 -120 336 25 421 39 23 58 27 140 29 98 3
127 15 132 54 10 76 -28 100 -160 99 -52 0 -115 -7 -139 -14z"/>
<path d="M2055 1198 c-44 -25 -44 -28 -45 -386 l0 -343 25 -24 c24 -25 26 -25
210 -25 l187 0 29 29 c35 35 37 70 6 99 -21 20 -34 22 -155 22 l-132 0 0 89 0
89 110 4 c97 3 112 6 131 25 30 30 30 80 0 105 -19 15 -41 18 -132 18 l-109 0
0 80 0 80 130 0 c117 0 132 2 150 20 33 33 30 75 -6 108 -24 21 -32 22 -202
22 -114 -1 -184 -5 -197 -12z"/>
<path d="M2623 1186 l-28 -24 0 -477 0 -477 28 -24 c36 -31 78 -31 114 0 l28
24 3 225 3 225 79 -5 c97 -7 153 11 217 69 76 71 103 195 66 304 -11 32 -34
66 -68 101 -70 69 -118 83 -286 83 -121 0 -129 -1 -156 -24z m252 -136 c24 -5
51 -21 68 -40 22 -25 27 -39 27 -85 0 -46 -5 -60 -28 -86 -27 -30 -78 -48
-144 -49 l-28 0 0 135 0 135 33 0 c17 0 50 -5 72 -10z"/>
<path d="M3985 1186 c-32 -32 -38 -91 -33 -352 3 -176 7 -226 20 -256 48 -107
127 -159 254 -166 71 -4 89 -1 135 20 75 34 114 70 144 133 25 51 27 64 32
247 7 249 -1 343 -33 374 -31 32 -84 32 -121 0 l-28 -24 -5 -264 c-5 -281 -8
-295 -57 -317 -62 -28 -135 4 -152 66 -6 22 -11 140 -11 276 l0 238 -25 24
c-33 33 -87 34 -120 1z"/>
</g>
</svg>
